<svg width="14" height="11" viewBox="0 0 14 11" fill="none" xmlns="http://www.w3.org/2000/svg">
<path fill-rule="evenodd" clip-rule="evenodd" d="M14.0009 5.66953C14.0009 5.53011 13.9482 5.39639 13.8544 5.2978C13.7607 5.19921 13.6335 5.14382 13.5009 5.14382H1.70789L4.85489 1.83602C4.90138 1.78714 4.93826 1.72911 4.96342 1.66525C4.98858 1.60138 5.00152 1.53294 5.00152 1.46381C5.00152 1.39469 4.98858 1.32624 4.96342 1.26237C4.93826 1.19851 4.90138 1.14048 4.85489 1.0916C4.80841 1.04273 4.75322 1.00395 4.69248 0.9775C4.63174 0.951047 4.56664 0.937431 4.50089 0.937431C4.43515 0.937431 4.37005 0.951047 4.30931 0.9775C4.24857 1.00395 4.19338 1.04273 4.14689 1.0916L0.146894 5.29733C0.100331 5.34616 0.0633877 5.40418 0.0381812 5.46805C0.0129748 5.53192 0 5.60039 0 5.66953C0 5.73868 0.0129748 5.80715 0.0381812 5.87102C0.0633877 5.93489 0.100331 5.99291 0.146894 6.04174L4.14689 10.2475C4.19338 10.2963 4.24857 10.3351 4.30931 10.3616C4.37005 10.388 4.43515 10.4016 4.50089 10.4016C4.56664 10.4016 4.63174 10.388 4.69248 10.3616C4.75322 10.3351 4.80841 10.2963 4.85489 10.2475C4.90138 10.1986 4.93826 10.1406 4.96342 10.0767C4.98858 10.0128 5.00152 9.94438 5.00152 9.87526C5.00152 9.80613 4.98858 9.73769 4.96342 9.67382C4.93826 9.60996 4.90138 9.55193 4.85489 9.50305L1.70789 6.19525H13.5009C13.6335 6.19525 13.7607 6.13986 13.8544 6.04127C13.9482 5.94268 14.0009 5.80896 14.0009 5.66953Z" fill="#A9A9A9"/>
</svg>
